<svg id="ey6wX4Y3fn11" xmlns="http://www.w3.org/2000/svg" xmlns:xlink="http://www.w3.org/1999/xlink" viewBox="0 0 1920 1080" shape-rendering="geometricPrecision" text-rendering="geometricPrecision"><g style="isolation:isolate" transform="matrix(1.858459 0 0 1.313827-595.908476-169.466569)"><path d="M320.64655,540c0-226.99619,57.24966-411.01297,127.8707-411.01297c29.42779,0,56.5338,31.95248,78.14318,85.65264c21.60938-53.70016,48.71538-85.65264,78.14318-85.65264s56.53382,31.95251,78.14321,85.65272c21.60938-53.7002,48.7154-85.65272,78.14321-85.65272c29.89034,0,57.38532,32.96483,79.15805,88.20088c21.77273-55.23605,49.26772-88.20088,79.15805-88.20088c27.61323,0,53.18217,28.13349,74.08382,75.96939c20.90165-47.8359,46.47059-75.96939,74.08382-75.96939c29.89034,0,57.38532,32.96483,79.15805,88.20088c21.77273-55.23605,49.26772-88.20088,79.15805-88.20088c70.62104,0,127.8707,184.01677,127.8707,411.01297s-57.24966,411.01297-127.8707,411.01297c-29.89034,0-57.38532-32.96483-79.15805-88.20088-21.77273,55.23605-49.26772,88.20088-79.15805,88.20088-27.61323,0-53.18217-28.13349-74.08382-75.96939-20.90165,47.8359-46.47059,75.96939-74.08382,75.96939-29.89034,0-57.38532-32.96483-79.15805-88.20088-21.77273,55.23605-49.26772,88.20088-79.15805,88.20088-29.42781,0-56.53382-31.95251-78.14321-85.65272-21.60938,53.7002-48.7154,85.65272-78.14321,85.65272s-56.5338-31.95248-78.14318-85.65264c-21.60938,53.70016-48.71538,85.65264-78.14318,85.65264-70.62104,0-127.8707-184.01677-127.8707-411.01297Z" fill="#d2dbed" stroke-width="0"/></g></svg>
