<svg id="erHI7tVXAGc1" xmlns="http://www.w3.org/2000/svg" xmlns:xlink="http://www.w3.org/1999/xlink" viewBox="0 0 1920 1080" shape-rendering="geometricPrecision" text-rendering="geometricPrecision"><defs><filter id="erHI7tVXAGc2-filter" x="-150%" width="400%" y="-150%" height="400%"><feGaussianBlur id="erHI7tVXAGc2-filter-drop-shadow-0-blur" in="SourceAlpha" stdDeviation="0,0"/><feOffset id="erHI7tVXAGc2-filter-drop-shadow-0-offset" dx="0" dy="0" result="tmp"/><feFlood id="erHI7tVXAGc2-filter-drop-shadow-0-flood" flood-color="#000"/><feComposite id="erHI7tVXAGc2-filter-drop-shadow-0-composite" operator="in" in2="tmp"/><feMerge id="erHI7tVXAGc2-filter-drop-shadow-0-merge" result="result"><feMergeNode id="erHI7tVXAGc2-filter-drop-shadow-0-merge-node-1"/><feMergeNode id="erHI7tVXAGc2-filter-drop-shadow-0-merge-node-2" in="SourceGraphic"/></feMerge></filter></defs><g style="isolation:isolate" transform="matrix(1.980636 0 0-1.380072-543.56862 1285.928518)" filter="url(#erHI7tVXAGc2-filter)"><path d="M426.11324,540c0-194.88667,40.25928-352.87354,89.92162-352.87354c16.37864,0,31.73454,17.18393,44.96081,47.2082c13.22627-30.02426,28.58216-47.2082,44.96081-47.2082c17.96591,0,34.70123,20.67594,48.7451,56.29505c14.04387-35.61911,30.77919-56.29505,48.74511-56.29505c16.37865,0,31.73454,17.18393,44.96081,47.2082c13.22627-30.02426,28.58216-47.20819,44.96081-47.20819c19.53714,0,37.61903,24.45054,52.36703,65.97939c14.748-41.52885,32.82989-65.97939,52.36703-65.97939c19.40427,0,37.37303,24.11912,52.06568,65.13451c14.69266-41.0154,32.66141-65.13452,52.06569-65.13452c49.66234,0,89.92162,157.98687,89.92162,352.87354s-40.25928,352.87354-89.92162,352.87354c-19.40427,0-37.37303-24.11912-52.06568-65.13451-14.69266,41.0154-32.66141,65.13452-52.06569,65.13452-19.53714,0-37.61903-24.45054-52.36703-65.97939-14.748,41.52885-32.82989,65.97939-52.36703,65.97939-16.37865,0-31.73454-17.18393-44.96081-47.2082-13.22627,30.02426-28.58216,47.20819-44.96081,47.20819-17.96591,0-34.70123-20.67594-48.7451-56.29505-14.04387,35.61911-30.77919,56.29505-48.74511,56.29505-16.37864,0-31.73454-17.18393-44.96081-47.2082-13.22627,30.02426-28.58216,47.2082-44.96081,47.2082-49.66234,0-89.92162-157.98687-89.92162-352.87354Z" fill="#fff" stroke-width="0"/></g></svg>
